<?xml version="1.0" encoding="UTF-8"?>
<svg width="1024px" height="289px" viewBox="0 0 1024 289" version="1.1" xmlns="http://www.w3.org/2000/svg" xmlns:xlink="http://www.w3.org/1999/xlink">
    <!-- Generator: Sketch 42 (36781) - http://www.bohemiancoding.com/sketch -->
    <title>Logo app</title>
    <desc>Created with Sketch.</desc>
    <defs>
        <rect id="path-1" x="0" y="0" width="1024" height="289" rx="25.7954198"></rect>
        <mask id="mask-2" maskContentUnits="userSpaceOnUse" maskUnits="objectBoundingBox" x="0" y="0" width="1024" height="289" fill="white">
            <use xlink:href="#path-1"></use>
        </mask>
    </defs>
    <g id="Page-1" stroke="none" stroke-width="1" fill="none" fill-rule="evenodd">
        <g id="Sign-in-Copy-3" transform="translate(-405.000000, -527.000000)">
            <g id="Logo-2" transform="translate(305.000000, 60.000000)">
                <g id="Logo-app" transform="translate(100.000000, 467.000000)">
                    <g id="Group">
                        <use id="Rectangle" stroke="#F45257" mask="url(#mask-2)" stroke-width="34.3938931" fill="#FFFFFF" xlink:href="#path-1"></use>
                        <text id="POSTY-Copy" font-family="LaoMN, Lao MN" font-size="189.166412" font-weight="normal" line-spacing="257.954198" letter-spacing="9.20036677" fill="#030303">
                            <tspan x="119.837251" y="200.243243">POSTY</tspan>
                        </text>
                        <path d="M926.93978,73.4974478 L915.866769,73.4974478 C910.292524,73.4974478 905.927166,70.3255786 899.256632,68.0017929 C890.121305,64.860015 876.476469,62.5018392 852.973076,62.5018392 C848.862612,62.5018392 836.114233,62.4864865 836.114233,62.4864865 C832.211025,62.4864865 829.075589,64.2563465 826.812483,66.3940574 C825.95129,67.2065227 825.052976,68.3868388 824.66878,70.6891307 C824.606294,71.0465417 824.538859,72.5418954 824.549376,72.743937 C824.253651,79.3327046 828.266365,81.7185153 830.53937,82.4683415 C830.476884,82.4892212 823.179015,82.2196276 823.179015,82.2196276 C816.774511,81.9297685 810.451672,86.509788 810.451672,94.2985233 C810.451672,100.7571 815.725242,105.311327 822.109948,105.622066 L818.284074,105.445817 C811.879569,105.166397 806.465561,110.17138 806.169216,116.634869 C805.888957,123.098973 810.850716,128.568835 817.251508,128.859309 C810.851335,128.56945 805.421859,133.573818 805.142219,140.037922 C804.861341,146.502025 809.362188,152.313946 815.767311,152.592751 L858.288716,157.892506 C858.288716,157.892506 849.426842,172.605926 849.426842,194.404313 C849.426842,208.936571 859.885511,210.891892 866.036978,210.891892 C870.875621,210.89312 872.178546,201.587537 872.178546,201.587537 C873.283497,195.620247 874.710776,190.408925 879.668822,180.814097 C885.217083,170.059833 892.774794,171.068813 901.59831,161.489952 C903.15551,159.802996 905.247244,157.018629 907.28701,153.592519 C907.453433,153.411357 907.609338,153.157731 907.759676,152.800934 C907.940947,152.377199 908.159339,152.081199 908.351127,151.68817 C908.688304,151.072219 909.020532,150.456883 909.347191,149.809612 C914.8076,144.388879 923.316212,144.942804 926.939162,144.942804 C934.206096,144.942804 938.012173,140.751515 938.012173,133.951495 L938.015267,83.7002427 C938.016504,76.0711756 934.87117,73.4974478 926.93978,73.4974478 Z" id="Shape-Copy" fill="#F45257" fill-rule="nonzero" transform="translate(871.572519, 136.689189) rotate(-180.000000) translate(-871.572519, -136.689189) "></path>
                    </g>
                </g>
            </g>
        </g>
    </g>
</svg>