<?xml version="1.0" encoding="utf-8"?>
<!-- Generator: Adobe Illustrator 19.0.0, SVG Export Plug-In . SVG Version: 6.00 Build 0)  -->
<svg version="1.1" id="Layer_1" xmlns="http://www.w3.org/2000/svg" xmlns:xlink="http://www.w3.org/1999/xlink" x="0px" y="0px"
	 viewBox="0 0 57 26" enable-background="new 0 0 57 26" xml:space="preserve">
<g id="XMLID_1_">
	<path id="XMLID_30_" d="M4,21.3V2.1h4.8c3.2,0,4.8,1.8,4.8,5.5c0,1.6-0.4,2.8-1.2,3.6c-0.8,0.8-2,1.2-3.6,1.2H6.7v8.9H4z M6.7,10.3
		h0.7c0.6,0,1.1,0,1.5-0.1C9.4,10.1,9.7,10,10,9.8c0.3-0.2,0.5-0.5,0.7-0.8c0.1-0.4,0.2-0.8,0.2-1.4c0-0.7-0.1-1.2-0.2-1.7
		c-0.1-0.4-0.3-0.8-0.6-1c-0.3-0.3-0.6-0.5-1-0.6c-0.4-0.1-1-0.2-1.7-0.2H6.7V10.3z"/>
	<path id="XMLID_33_" d="M22.9,20.2c-0.6,0.9-1.7,1.3-3.2,1.3c-1.5,0-2.5-0.4-3.2-1.3c-0.6-0.9-1-2.1-1-3.7v-4.1
		c0-1.6,0.3-2.9,1-3.7c0.6-0.9,1.7-1.3,3.2-1.3c1.5,0,2.5,0.4,3.2,1.3c0.6,0.9,1,2.1,1,3.7v4.1C23.8,18.1,23.5,19.4,22.9,20.2z
		 M19.2,19.2c0.1,0.1,0.3,0.1,0.5,0.1s0.4,0,0.5-0.1c0.1-0.1,0.3-0.1,0.4-0.2c0.1-0.1,0.2-0.2,0.2-0.4s0.1-0.3,0.2-0.4
		c0-0.1,0.1-0.3,0.1-0.5c0-0.2,0-0.4,0-0.5c0-0.1,0-0.3,0-0.6v-4.1c0-0.3,0-0.5,0-0.6c0-0.1,0-0.3,0-0.5c0-0.2,0-0.4-0.1-0.5
		c0-0.1-0.1-0.3-0.2-0.4s-0.1-0.3-0.2-0.4c-0.1-0.1-0.2-0.2-0.4-0.2c-0.1-0.1-0.3-0.1-0.5-0.1s-0.4,0-0.5,0.1
		c-0.1,0.1-0.3,0.1-0.4,0.2c-0.1,0.1-0.2,0.2-0.2,0.4s-0.1,0.3-0.2,0.4c0,0.1-0.1,0.3-0.1,0.5c0,0.2,0,0.4,0,0.5c0,0.1,0,0.3,0,0.6
		v4.1c0,0.3,0,0.5,0,0.6c0,0.1,0,0.3,0,0.5c0,0.2,0,0.4,0.1,0.5c0,0.1,0.1,0.3,0.2,0.4s0.1,0.3,0.2,0.4C18.9,19,19,19.1,19.2,19.2z"
		/>
	<path id="XMLID_36_" d="M30.8,21.5c-1.1,0-2-0.3-2.7-1c-0.7-0.7-1.1-1.5-1.4-2.6l2.1-0.7c0.5,1.4,1.2,2.1,2.1,2.1
		c0.4,0,0.8-0.1,1-0.4c0.2-0.2,0.4-0.6,0.4-1c0-0.6-0.2-1.2-0.7-1.6l-2.8-2.1c-0.3-0.2-0.6-0.4-0.8-0.6s-0.4-0.4-0.6-0.7
		c-0.2-0.3-0.4-0.6-0.5-0.9c-0.1-0.3-0.2-0.7-0.2-1.1c0-1.2,0.4-2.1,1.1-2.7c0.7-0.6,1.8-0.9,3-0.9c0.6,0,1.1,0.1,1.6,0.3
		c0.5,0.2,0.9,0.5,1.2,0.8c0.3,0.3,0.6,0.7,0.8,1.1c0.2,0.4,0.4,0.9,0.5,1.4l-2.1,0.7c-0.1-0.3-0.2-0.5-0.3-0.7
		c-0.1-0.2-0.2-0.4-0.4-0.6c-0.2-0.2-0.4-0.4-0.6-0.5c-0.2-0.1-0.5-0.2-0.8-0.2c-0.4,0-0.8,0.1-1,0.4c-0.2,0.2-0.4,0.6-0.4,1
		c0,0.4,0.2,0.8,0.7,1.2l2.8,2.1c0.3,0.2,0.6,0.5,0.8,0.7c0.2,0.2,0.4,0.5,0.6,0.8c0.2,0.3,0.4,0.6,0.5,1s0.2,0.8,0.2,1.2
		c0,1.2-0.4,2.1-1.1,2.7C33,21.2,32,21.5,30.8,21.5z"/>
	<path id="XMLID_38_" d="M41.5,21.5c-1.1,0-1.9-0.3-2.4-0.8c-0.5-0.6-0.7-1.4-0.8-2.5V9.6H37V7.6h1.4V2.8h2.8v4.8h2.1v2.1h-2.1v8
		c0,0.6,0.1,1,0.2,1.2s0.5,0.4,0.9,0.4c0.2,0,0.5,0,0.9-0.1v2.2C42.5,21.5,41.9,21.5,41.5,21.5z"/>
	<path id="XMLID_40_" d="M46,24.8v-2.1c0.5,0,1,0,1.3-0.1c0.3-0.1,0.6-0.2,0.7-0.4c0.2-0.2,0.3-0.4,0.3-0.6c0-0.2,0.1-0.5,0.1-0.9
		L45.3,7.6H48c1.1,5.9,1.6,9.1,1.7,9.6c0.2-1,0.3-2,0.5-3.1c0.2-1.1,0.4-2.3,0.6-3.5c0.2-1.3,0.4-2.3,0.6-3h2.8L50.8,22
		c-0.2,1-0.7,1.7-1.5,2.1c-0.7,0.4-1.8,0.6-3.1,0.6H46z"/>
</g>
<g id="XMLID_2_">
</g>
<g id="XMLID_29_">
</g>
<g id="XMLID_42_">
</g>
<g id="XMLID_43_">
</g>
<g id="XMLID_44_">
</g>
<g id="XMLID_45_">
</g>
<g id="XMLID_46_">
</g>
</svg>
